<svg width="353" height="94" viewBox="0 0 353 94" fill="none" xmlns="http://www.w3.org/2000/svg">
<path d="M20.5284 56.29C20.1684 58.45 19.9884 60.1 19.9884 61.24C19.9884 67.06 20.8884 71.41 22.6884 74.29C19.0884 76.99 15.3384 78.34 11.4384 78.34C7.53844 78.34 4.74844 77.23 3.06844 75.01C1.38844 72.73 0.548438 69.37 0.548438 64.93C0.548438 60.43 2.43844 47.74 6.21844 26.86L1.44844 17.23C8.22844 12.85 14.4084 10.66 19.9884 10.66C21.5484 10.66 23.2584 10.96 25.1184 11.56C26.9784 12.1 28.2984 12.73 29.0784 13.45C33.5184 11.71 37.6284 10.84 41.4084 10.84C47.0484 10.84 51.4884 12.82 54.7284 16.78C58.0284 20.68 59.6784 25.42 59.6784 31C59.6784 37.72 57.2484 43.72 52.3884 49C50.0484 51.58 46.8984 53.65 42.9384 55.21C38.9784 56.77 34.9284 57.55 30.7884 57.55C26.7084 57.55 23.2884 57.13 20.5284 56.29ZM22.2384 46.03C23.0784 46.21 23.9484 46.3 24.8484 46.3C28.6884 46.3 32.1084 44.95 35.1084 42.25C38.1084 39.55 39.6084 36.22 39.6084 32.26C39.6084 29.5 38.7984 27.16 37.1784 25.24C35.6184 23.32 33.3984 22.36 30.5184 22.36C29.3184 22.36 27.9384 22.6 26.3784 23.08C25.1784 31.3 23.7984 38.95 22.2384 46.03ZM108.08 28.84C111.44 28.84 114.32 30.19 116.72 32.89C119.18 35.59 120.41 39.52 120.41 44.68C120.41 49.78 119.51 54.52 117.71 58.9C115.91 63.22 113.54 66.76 110.6 69.52C107.66 72.28 104.33 74.44 100.61 76C96.8902 77.5 93.0802 78.25 89.1802 78.25C81.3202 78.25 75.1102 76.09 70.5502 71.77C65.9902 67.45 63.7102 61.72 63.7102 54.58C63.7102 44.92 66.8002 37.09 72.9802 31.09C79.2202 25.03 87.1402 22 96.7402 22C98.9002 22 101.06 22.24 103.22 22.72C103.88 24.7 104.24 26.95 104.3 29.47C105.56 29.05 106.82 28.84 108.08 28.84ZM97.0102 41.35C97.0102 39.67 97.4002 37.78 98.1802 35.68C99.0202 33.58 100.34 31.9 102.14 30.64C94.2202 32.32 88.7602 35.53 85.7602 40.27C83.1802 44.35 81.8902 48.55 81.8902 52.87C81.8902 57.19 82.7602 60.67 84.5002 63.31C86.3002 65.89 88.5802 67.18 91.3402 67.18C97.4602 67.18 101.78 63.19 104.3 55.21C99.4402 52.21 97.0102 47.59 97.0102 41.35ZM138.936 93.91C135.216 93.91 132.606 92.98 131.106 91.12C129.666 89.32 128.946 86.68 128.946 83.2C128.946 79.78 129.666 72.85 131.106 62.41C132.606 51.97 134.046 43.06 135.426 35.68L130.386 28.48C134.106 26.32 137.316 24.7 140.016 23.62C142.716 22.48 145.386 21.91 148.026 21.91C152.346 21.91 154.506 24.76 154.506 30.46C154.506 31.24 154.386 32.83 154.146 35.23L155.046 35.68C156.786 31.36 159.306 28 162.606 25.6C165.906 23.14 169.776 21.91 174.216 21.91C178.716 21.91 182.286 23.95 184.926 28.03C187.566 32.05 188.886 37.06 188.886 43.06C188.886 51.1 186.066 58.42 180.426 65.02C177.666 68.26 173.976 70.9 169.356 72.94C164.736 74.92 159.576 75.91 153.876 75.91C152.136 75.91 149.856 75.76 147.036 75.46C146.856 77.56 146.766 79.51 146.766 81.31C146.766 85.15 147.696 87.88 149.556 89.5C146.196 92.44 142.656 93.91 138.936 93.91ZM150.726 56.65L148.656 67.09C155.916 66.91 161.706 64.54 166.026 59.98C170.406 55.36 172.596 50.32 172.596 44.86C172.596 42.04 172.026 39.79 170.886 38.11C169.806 36.37 168.216 35.5 166.116 35.5C158.676 35.5 153.546 42.55 150.726 56.65ZM207.842 93.91C204.122 93.91 201.512 92.98 200.012 91.12C198.572 89.32 197.852 86.68 197.852 83.2C197.852 79.78 198.572 72.85 200.012 62.41C201.512 51.97 202.952 43.06 204.332 35.68L199.292 28.48C203.012 26.32 206.222 24.7 208.922 23.62C211.622 22.48 214.292 21.91 216.932 21.91C221.252 21.91 223.412 24.76 223.412 30.46C223.412 31.24 223.292 32.83 223.052 35.23L223.952 35.68C225.692 31.36 228.212 28 231.512 25.6C234.812 23.14 238.682 21.91 243.122 21.91C247.622 21.91 251.192 23.95 253.832 28.03C256.472 32.05 257.792 37.06 257.792 43.06C257.792 51.1 254.972 58.42 249.332 65.02C246.572 68.26 242.882 70.9 238.262 72.94C233.642 74.92 228.482 75.91 222.782 75.91C221.042 75.91 218.762 75.76 215.942 75.46C215.762 77.56 215.672 79.51 215.672 81.31C215.672 85.15 216.602 87.88 218.462 89.5C215.102 92.44 211.562 93.91 207.842 93.91ZM219.632 56.65L217.562 67.09C224.822 66.91 230.612 64.54 234.932 59.98C239.312 55.36 241.502 50.32 241.502 44.86C241.502 42.04 240.932 39.79 239.792 38.11C238.712 36.37 237.122 35.5 235.022 35.5C227.582 35.5 222.452 42.55 219.632 56.65ZM295.829 7.78C295.829 10.06 294.629 12.04 292.229 13.72C289.829 15.34 287.099 16.15 284.039 16.15C280.979 16.15 278.549 15.55 276.749 14.35C275.009 13.15 274.139 11.53 274.139 9.49C274.139 6.73 275.429 4.57 278.009 3.01C280.589 1.45 283.319 0.669999 286.199 0.669999C289.079 0.669999 291.389 1.27 293.129 2.47C294.929 3.67 295.829 5.44 295.829 7.78ZM278.279 78.25C274.559 78.25 271.859 77.32 270.179 75.46C268.499 73.6 267.659 70.78 267.659 67C267.659 63.16 269.579 52.93 273.419 36.31L268.379 28.75C275.879 24.25 281.789 22 286.109 22C288.569 22 290.309 22.54 291.329 23.62C292.349 24.64 292.859 26.32 292.859 28.66C292.859 29.56 291.749 34.84 289.529 44.5C287.309 54.16 286.199 61.06 286.199 65.2C286.199 69.34 287.129 72.22 288.989 73.84C285.629 76.78 282.059 78.25 278.279 78.25ZM326.491 78.25C318.271 78.25 311.911 76.12 307.411 71.86C302.971 67.6 300.751 61.84 300.751 54.58C300.751 44.92 304.051 37.09 310.651 31.09C317.311 25.03 325.651 22 335.671 22C341.251 22 345.481 23.26 348.361 25.78C351.241 28.24 352.681 31.51 352.681 35.59C352.681 41.17 349.951 45.82 344.491 49.54C339.091 53.2 330.721 55.06 319.381 55.12C319.561 58.96 320.431 61.99 321.991 64.21C323.551 66.37 325.501 67.45 327.841 67.45C330.181 67.45 332.191 66.67 333.871 65.11C335.611 63.55 336.481 61 336.481 57.46C345.241 57.46 349.621 59.53 349.621 63.67C349.621 67.21 347.461 70.54 343.141 73.66C338.821 76.72 333.271 78.25 326.491 78.25ZM334.141 32.53C331.081 32.53 328.261 34.06 325.681 37.12C323.161 40.18 321.331 43.78 320.191 47.92C326.191 47.44 330.691 46.09 333.691 43.87C336.751 41.59 338.281 39.19 338.281 36.67C338.281 35.47 337.891 34.48 337.111 33.7C336.391 32.92 335.401 32.53 334.141 32.53Z" fill="#FE6611"/>
</svg>
