<?xml version="1.0" encoding="utf-8"?>
<!-- Generator: Adobe Illustrator 28.0.0, SVG Export Plug-In . SVG Version: 6.00 Build 0)  -->
<svg version="1.1" id="Layer_1" xmlns="http://www.w3.org/2000/svg" xmlns:xlink="http://www.w3.org/1999/xlink" x="0px" y="0px"
	 viewBox="0 0 729.9 201" style="enable-background:new 0 0 729.9 201;" xml:space="preserve">
<style type="text/css">
	.st0{clip-path:url(#SVGID_00000041258657936022007520000016554115840377811386_);}
	.st1{fill:#FE6611;}
	.st2{fill:#D6182A;}
	.st3{fill:#C31A28;}
	.st4{fill:#BB0815;}
	.st5{fill:#BD1927;}
	.st6{fill:#2C1F1D;}
</style>
<g>
	<defs>
		<rect id="SVGID_1_" width="211" height="201"/>
	</defs>
	<clipPath id="SVGID_00000148657031319205448620000001579974007769189561_">
		<use xlink:href="#SVGID_1_"  style="overflow:visible;"/>
	</clipPath>
	<g style="clip-path:url(#SVGID_00000148657031319205448620000001579974007769189561_);">
		<path class="st1" d="M71.2,36.2c3.7,1.4,7.5,2.8,11.5,4.2c-1.2-5.9-4-11-4.5-16.7c-0.5-6.5,1.4-11.9,7-15.8
			c0.1,2.4-2.2,3.2-3.1,4.8c-3,5.5-3.5,11.4-1,17.5c0.8,2,0.5,4.7,3.9,2.9c0.2-0.1,0.5,0.1,0.7,0.2c2.5,1.4,0,4.4,1.1,5.1
			c1.5,1,4.2,0.3,3.7,3.6c-0.2,1.4-0.5,3,0.5,4.3c3.9,4.8,8.2,9.4,9.9,15.7c0.5-3.1,0.7-6,0.3-9c-0.7-4.7-1.2-9.4,0.3-14
			c1.5-4.5,6.2-8.3,11-8.2c4.6,0.1,9.2,1,13.9,0.7c5.4-0.3,10,1.2,13.7,5.6c2.9,3.4,6,6.9,10.9,7.6c0.8,1.3,1.7,2.7,2.4,4
			c3.3,6.5,3.1,12.4-0.7,18.4c-1,1.6-1.7,3.3,1.4,3.3c1.1,0,1.9,0.6,1.9,1.8c0,1-0.6,1.5-1.6,1.8c-2.6,0.8-4.2,3-6.5,4.4
			c-2.1,1.3-1.8,3.1,0.6,4c2.8,1.1,5.3,2.8,8.3,3.6c2.3,0.6,5,2.5,4.9,4.8c-0.2,2.6-3.5,2-5.5,2.3c-1.9,0.3-3.4,0.8-3.7,2.8
			c-0.3,2.5-0.3,4.9,1.8,6.8c2.2,2,3.3,4.5,4.3,7.2c1,2.7,0.1,8.1-2.3,9c-3.5,1.3-2.9,3.4-2.3,6c0.8,3.6-1.3,6.4-5,6.5
			c-2.3,0.1-3.1,1.2-3.2,3.2c0,1.2,0.4,2.4,0.6,3.6c0.6,3.5-1.8,5.7-5.2,4.9c-1.4-0.3-2.8-1-4.1-1.6c-4-1.8-5.1-1-5.4,3.5
			c-0.2,3,0.9,6,0,9c-1.2,3.8-3.2,4.6-7,3.5c-3.5-1-5.4-3.7-7.6-6c-3.1-3.1-5.3-3.4-8.4-0.3c-2.8,2.8-5.5,1.6-7.9-0.2
			c-2.2-1.8-3.8-4.4-4.5-7.3c-0.5-2.1-0.8-4.6-2.8-5.2c-2.2-0.6-2.9,2.1-4.1,3.6c-0.7,0.9-1,2.6-2.5,2.4c-1.4-0.2-1.6-1.7-1.8-2.9
			c-0.1-0.9-0.6-1.3-1.5-1.3c0-1.1,0.8-1.7,1.3-2.5c3.8-6.1,7.7-12,9-19.3c3.5-0.8,2.3,1.5,1.8,3c-1.2,3.6-2.6,7.2-4,11.3
			c1.8-0.8,2.4-1.8,3.1-3c1.3-2.3,1.8-5,3.8-6.9c0.8-0.7,1-2.1,2.4-1.6c1.4,0.5,1,1.9,1,2.9c-0.2,3.1-1.5,5.9-2.9,8.7
			c1,2.9-2.7,5.4-0.8,8.4c0.7-2.3,2.5-4.3,2.2-6.9c2-2.5,0.7-6.6,4.2-8.9c0,1,0,1.6,0,2.2c0,0.7-1.1,1.7,0.2,2.2
			c1.1,0.4,1.4-0.7,1.8-1.4c0.6-1.3,1.2-2.6,1.8-4.1c1.3,0.9,2.5,1.7,3.7,2.5c0.4-1.1-1-3.1,1.5-2.5c3.4,0.4,5.7,3.3,9,3.9
			c-1.6-2.2-3.3-4.1-5.9-4.9c-0.9-0.9-1-1.9-0.2-2.9c0.6-0.8,1.3-0.8,1.9-0.4c3.4,2.6,7.2,3.1,11.4,2.7c1.4-0.1,3,1.2,4.5,2
			c1.8,1,3.5,2.1,5.1,3.5c0.7,0.7,2.1,1.4,3,0.2c1-1.4-0.8-2.2-1.4-2.4c-4.8-1.5-8.5-5.1-13.2-6.7c-4.3-1.5-5-3.2-3.4-5.5
			c5.9,2.4,12.1,3.3,18.3,4.7c-6.2-3.2-13-4.8-19.9-6.2c0.1-2.6,1.9-2.9,3.9-3.1c2.3-0.3,4.7,0.6,7.7-0.4c-1.8-1.3-3.3-1-4.7-0.9
			c-2.2,0.2-4-0.4-5.9-1.4c-0.8-0.5-1.5-0.8-1.4-1.8c0.1-1,0.9-1,1.6-1.3c3.6-1.7,7.4-3,11.4-3.6c-1.9-1.1-3.7-0.9-5.4-0.4
			c-1.4,0.4-2.6,1.4-4.2,1.1c-1.3-0.2-3.4,0.6-3.7-1.4c-0.3-1.7,1.3-2.4,2.7-3c2.2-0.9,4.3-2,6.5-3c2.2-1.5,5.1-1.5,6.9-4
			c-2.5,0.2-4.8,1-6.9,2.4c-3.5-0.1-6,4.2-10.7,2.4c2.3-1.2,4.1-2.1,6.4-3.3c-2.4-0.6-4.1-1.3-5.9-0.2c-1.2,0.8-2.2,0.2-2.9-0.6
			c-0.7-0.8-0.4-1.8,0.4-2.6c0.2-0.2,0.4-0.6,0.6-0.9c1.2-2,0.4-4.1,0.6-6.1c0.4-3.1,2.4-5.8,4.8-8c1.4-1.3,2.9-2.8,1.5-5.3
			c-0.5,0.4-1.1,0.7-1.4,1.1c-2.6,4.8-6.5,8.7-8.6,13.8c-0.5,1.2-1.6,2.1-2.3,3.3c-0.8,1.2-1.7,0.7-2.6,0.3
			c-1.4-0.6-0.3-1.4-0.1-2.1c0.4-1.1,1-2.1,0-3.4c-1.1,2.1-2,3.9-3,6c-2.2-3-3-5.7-1.4-8.9c0.4-0.7,0.6-1.5-0.4-1.8
			c-1-0.3-1.7,0.3-1.8,1.3c-0.1,1.1-0.1,2.2-0.1,3.3c0,1.8,0.1,3.6-1.5,5.1c-1,1-2.5,1.1-2.6,0c-0.2-2.3-2-3.9-1.9-6.2
			c0.1-3.5-2.3-6.5-1.5-10.6c-1.5,1.3-1,2.1-1.1,2.9c-1,4.1,2,7.8,1.3,11.9c-0.2,1,0.5,2.4-1.1,2.7c-1.5,0.4-2.6-0.7-2.9-1.7
			c-0.8-2.3-2.2-4.4-2-7c-1.1-2.4-2.2-4.8-3.4-7.2c-1,3.1,1.1,5.2,1.7,7.8c0.4,2.9,3,5.5,1.1,8.8c-2-1.7-1.5-4.4-3.7-6.9
			c0.3,4.5-1.3,8.2,0.5,11.7c1.4,2.5,0.4,3.8-1.8,4.8h-0.2c-0.6,0-1.1,0-1.7,0c-9.1-4.4-18-9.3-26.6-14.7c0-0.5,0-1,0-1.5
			c0-8.2,0.1-8.2,8.2-8.9c3.3-0.2,5.8-2.5,8.7-3.6c1.2-0.5,1.8-2.5,0.9-4.2c-0.4-0.9-1-1.7-1.3-2.6c-1.1-3.3,0.1-4.7,3.4-4.1
			c3.5,0.7,7.4,0.5,9,5c0.3,0.9,2,1.3,3.9,2.5c-1.6-4.3-1.7-8-0.9-11.3c1-4.5-0.6-5.6-4.5-5.3c-0.1,0-0.3-0.4-0.4-0.5
			c0.2-1.5,2.7-1.8,1.9-3.6c-0.9-1.9-2.8-1.5-4.6-1.6c-1.7,0-3.4,0.3-4.3-1.8c-0.3-0.8-1.6-1.1-2.6-1.1C73.3,39.1,72,38.1,71.2,36.2
			L71.2,36.2z"/>
		<path class="st2" d="M51.8,28.6c5.6,0.5,10.9,1.8,15.6,5.1c-2.4,2.6-5.3,4.5-8.7,5.4c-0.3,0.1-0.5,0.5-0.6,0.8
			c-3.6,6.3-9.8,10.4-13.5,16.6c-3,5-6.3,9.4-3.1,15.6c1.7,3.2,0,5.6-3.7,6.5c-2.6,0.6-3.9,2.3-3.4,5.1c-8.2,9.3-9.8,19.6-4.4,30.8
			c1.8,3.9,3.4,7.5,1.6,12c-1.2,3,0.7,5.9,3.4,7.8c4.5,3.2,8.6,6.7,10.4,12.2c2.3,7.3,3.7,8.3,11.1,8.5c0.8,6,4.1,9.5,11,6.1
			c4-2,8.2-3.7,11.4-7c0.7-0.7,1.9-2.2,2.7,0c1.1,3.1,1.7,6.3,2,9.5c0.2,1.4-1.3,2.9,0.3,4.3c1.6-1.8,1.3-5,5.4-5.8
			c-2.5,2.4-1.1,3.8-0.3,5.3c-1.4,0.6-2.2,1.8-2.8,3.2c-6.4,13.1-17.1,19.3-31.5,20.1c-5,0.2-9.2-1.1-11.7-5.5
			c-4.2-7.4-10.2-12.4-18.5-14.6c-3.1-0.8-5.7-2.9-7.4-5.7c-1.5-2.4-2.6-5-1.3-7.6c1.6-3.1,0.4-5-1.7-7.1C7.9,144.2,3,137.4,1,128.7
			c-3.2-13.3,2.2-27.4,12.9-34.2c2.2-1.4,5-1.3,6.9-3.1c-3.6-2.2-8.1-2.6-11.1-6.6c-4-5.3-4.8-10.8-2.8-16.6
			c4.1-11.4,9.5-22.3,15.6-32.8c2-3.6,5.2-6.1,9.5-6.9C38.7,28.6,45.2,28.6,51.8,28.6L51.8,28.6z"/>
		<path class="st3" d="M88.9,167.6c-0.8-1.5-2.2-3,0.3-5.3c-4.1,0.8-3.8,4-5.4,5.8c-1.6-1.3-0.2-2.9-0.3-4.3c-0.3-3.2-0.9-6.4-2-9.5
			c-0.8-2.2-2-0.7-2.7,0c-3.2,3.3-7.4,5-11.4,7c-6.9,3.4-10.2-0.1-11-6.1c5.1-0.1,10.2,0.5,14.9-2.5c5.1-3.2,8.9-7.5,12.4-12.2
			c0.8,0.1,1.4,0.5,1.5,1.3c0.2,1.2,0.3,2.7,1.8,2.9c1.4,0.2,1.7-1.5,2.5-2.4c1.2-1.5,1.9-4.2,4.1-3.6c2,0.6,2.3,3.1,2.8,5.2
			c0.7,2.9,2.2,5.5,4.5,7.3c2.3,1.9,5,3,7.9,0.2c3.1-3.1,5.3-2.8,8.4,0.3c2.3,2.3,4.2,5,7.6,6c3.8,1.1,5.8,0.3,7-3.5
			c0.9-3-0.2-6,0-9c0.2-4.5,1.4-5.3,5.4-3.5c1.3,0.6,2.7,1.3,4.1,1.6c3.5,0.8,5.8-1.4,5.2-4.9c-0.2-1.2-0.6-2.4-0.6-3.6
			c0-2,0.9-3.1,3.2-3.2c3.7-0.1,5.8-2.9,5-6.5c-0.6-2.6-1.2-4.7,2.3-6c2.4-0.9,3.3-6.3,2.3-9c-1-2.6-2.1-5.2-4.3-7.2
			c-2.1-1.9-2.1-4.4-1.8-6.8c0.2-2.1,1.8-2.5,3.7-2.8c2-0.3,5.3,0.3,5.5-2.3c0.1-2.3-2.6-4.1-4.9-4.8c-3-0.8-5.5-2.5-8.3-3.6
			c-2.4-1-2.7-2.8-0.6-4c2.2-1.3,3.9-3.6,6.5-4.4c0.9-0.3,1.6-0.8,1.6-1.8c0-1.2-0.9-1.8-1.9-1.8c-3.1,0-2.5-1.7-1.4-3.3
			c3.9-6,4.1-11.9,0.7-18.4c-0.7-1.4-1.6-2.7-2.4-4c0.7-0.5,1.4-1,2.1-1.4c0.3,1.5,1.4,0.3,2.1,0.6c0.3-0.2,0.6-0.4,0.9-0.6
			c9.9-5.2,20.2-4.3,30.5-1.6c-3.2,0-6.2,0.1-9.4-1c-2.9-1-6.9-1.7-9.1,0.5c-1.6,1.4-3,2-4.8,2.4c1.3,3.3-0.3,6.6-3.8,6.9
			c-2.5,0.3-2.7,1.5-2.6,3.4c0.1,1.6,0.1,3.2,0,4.8c-0.3,2.9,1.1,3.8,3.9,3.8c3.9,0,7.8-0.6,11.6,1.2c4.4,2.1,5.2,4.6,2.1,8.2
			c-0.5,0.6-1.6,1.7-0.5,2c2.4,0.7,2.8,3.2,5,4.1c3.1,1.4,4.5,4.5,4.6,8.2c0.3,7.9-1.4,15.6-2.3,23.3c-0.1,0.5-0.4,1,0.1,1.2
			c4.7,2.1,0.3,2.1-0.7,2.8c-0.8,0.6-2.6,1.1-0.1,1.9c-1,4.9-2.9,9.4-8.1,10.7c-4.5,1.1-9.4,0.9-14-1.9c0.6,3,3.1,3.3,4.3,5
			c6.7,9.2,3.7,20.6-3.2,27.6c-5.6,5.7-12.8,7.9-20.3,9.3c-1.7,0.3-2.9,0.8-3.7,2.5c-2.2,4.7-5.7,6.4-10.6,5.2
			c-5.7-1.3-11.5-3.1-17.2-0.2c-6.4,3.2-11.5,1.2-16-3.8c-1-0.6-2.4-0.8-2.8-2.1L88.9,167.6z M158.6,45.7c0.2,0.1,0.5,0.3,0.6,0.2
			c0.2-0.1,0.2-0.4,0.3-0.6c-0.2-0.1-0.5-0.3-0.6-0.2C158.8,45.2,158.7,45.5,158.6,45.7z"/>
		<path class="st4" d="M91.6,169.8c4.4,5,9.6,7,16,3.8c5.8-2.9,11.5-1.1,17.2,0.2c5,1.1,8.5-0.6,10.6-5.2c0.8-1.7,2-2.1,3.7-2.5
			c7.5-1.4,14.7-3.6,20.3-9.3c6.9-7,9.9-18.3,3.2-27.6c-1.2-1.7-3.8-2-4.3-5c4.6,2.8,9.4,3,14,1.9c5.1-1.3,7.1-5.8,8.1-10.7
			c1.2-1.4,2.5-0.4,3.8-0.1c8.1,1.6,15.4,10.1,16.9,19.7c2.2,14.6-5.2,28.6-19.5,36.4c-3.2,1.8-6.6,3.3-9.9,4.9
			c-1.2,0.6-2.3,1.2-2.5,2.9c-1,7.9-5,11.6-13.1,12c-3.1,0.2-6.2,0.2-9.2,0.2c-4.2,0.1-8.1,1.3-11.2,4c-8.1,6.9-16,6.9-25.3,1.8
			C99.1,191.2,93,182.2,91.6,169.8L91.6,169.8z"/>
		<path class="st4" d="M153.1,43.4c-0.7,0.5-1.4,1-2.1,1.4c-4.9-0.7-8-4.2-10.9-7.6c-3.7-4.4-8.3-5.9-13.7-5.6
			c-4.7,0.3-9.3-0.6-13.9-0.7c-4.8-0.1-9.5,3.6-11,8.2c-1.5,4.7-1,9.3-0.3,14c0.4,3,0.2,5.9-0.3,9c-1.8-6.3-6-10.9-9.9-15.7
			c-1-1.3-0.7-2.9-0.5-4.3c0.5-3.2-2.2-2.6-3.7-3.6c-1.1-0.8,1.4-3.8-1.1-5.1c-0.2-0.1-0.5-0.3-0.7-0.2c-3.4,1.8-3.1-0.9-3.9-2.9
			c-2.5-6-2-12,1-17.5c0.9-1.6,3.2-2.4,3.1-4.8c1.1,0.1,2.2,0.2,2.2-1.4c10.1-2.9,20.3-5.2,30.6-6.4c5.4-0.6,9.7,3.4,14.2,5.8
			c3.7,2,7.4,3.7,11.6,4.5c4.2,0.8,7.3,3.3,9.3,7.1c1.8,3.5,3.7,6.9,5.8,10.2c2.2,3.6,1.9,7-0.8,10.2
			C156.4,39.8,154.7,41.5,153.1,43.4L153.1,43.4z"/>
		<path class="st2" d="M184.3,115.3c-1.3-0.3-2.6-1.3-3.8,0.1c-2.5-0.8-0.7-1.3,0.1-1.9c1-0.7,5.4-0.6,0.7-2.8
			c-0.5-0.2-0.2-0.8-0.1-1.2c0.9-7.8,2.6-15.4,2.3-23.3c-0.2-3.6-1.4-6.7-4.6-8.2c-2.2-1-2.6-3.5-5-4.1c-1.1-0.3-0.1-1.4,0.5-2
			c3.2-3.6,2.3-6.1-2.1-8.2c-3.8-1.8-7.7-1.2-11.6-1.2c-2.8,0-4.2-0.9-3.9-3.8c0.2-1.6,0.1-3.2,0-4.8c-0.1-1.9,0.1-3.1,2.6-3.4
			c3.5-0.4,5.1-3.6,3.8-6.9c1.8-0.4,3.2-0.9,4.8-2.4c2.3-2.1,6.2-1.4,9.1-0.5c3.2,1.1,6.2,1,9.4,1c3.2,0.2,6.1,1.2,8.7,2.9
			c-0.3,3.5,1.5,3.5,4.1,2.5l0.2,0.2c-0.8,2.6,0.4,3.5,2.8,3.2c3.1,3.9,3.8,8.7,4.6,13.4c1.2,7.6,2.3,15.2,3.4,22.9
			c0.4,2.7,0.6,5.4,0.6,8c0.1,12.5-7,19.5-19.6,19.8C189.1,114.7,186.6,114,184.3,115.3z"/>
		<path class="st3" d="M34.3,83.8c-0.5-2.8,0.8-4.4,3.4-5.1c3.7-0.9,5.4-3.3,3.7-6.5c-3.2-6.2,0.1-10.6,3.1-15.6
			c3.7-6.3,10-10.4,13.5-16.6c0.2-0.3,0.4-0.7,0.6-0.8c3.5-0.9,6.3-2.8,8.7-5.4c1.5,0.5,2.6,1.4,3.8,2.5c0.8,1.9,2.1,2.9,4.2,2.7
			c1-0.1,2.3,0.2,2.6,1.1c0.9,2.2,2.6,1.8,4.3,1.8c1.7,0,3.7-0.4,4.6,1.6c0.8,1.7-1.7,2.1-1.9,3.6c0.1,0.2,0.2,0.5,0.4,0.5
			c4-0.3,5.5,0.8,4.5,5.3c-0.7,3.3-0.6,7,0.9,11.3c-1.9-1.2-3.6-1.6-3.9-2.5c-1.6-4.4-5.4-4.3-9-5c-3.4-0.6-4.6,0.8-3.4,4.1
			c0.3,0.9,0.8,1.8,1.3,2.6c0.8,1.7,0.3,3.8-0.9,4.2c-3,1.1-5.4,3.4-8.7,3.6c-8.1,0.6-8.2,0.7-8.2,8.9c0,0.5,0,1,0,1.5
			c-0.4-0.1-0.7-0.1-1.1-0.2c-7.7-3-15.1-3.6-21.9,2.3C34.8,83.8,34.4,83.8,34.3,83.8L34.3,83.8z"/>
		<path class="st3" d="M51.8,28.6c-6.6,0-13.2,0-19.8-0.1C38.6,26.1,45.2,27.4,51.8,28.6z"/>
		<path class="st3" d="M199.4,47.2c-2.5,1.1-4.3,1-4.1-2.5C197,45,198.2,46,199.4,47.2z"/>
		<path class="st3" d="M202.4,50.6c-2.5,0.3-3.6-0.6-2.8-3.2C200.8,48.2,201.8,49.3,202.4,50.6z"/>
		<path class="st5" d="M87.4,6.5c0,1.6-1.1,1.5-2.2,1.4C85.7,7.1,86.4,6.6,87.4,6.5z"/>
		<path class="st5" d="M156.1,43.3c-0.3,0.2-0.6,0.4-0.9,0.6C155.4,43.5,155.6,43.3,156.1,43.3z"/>
		<path class="st1" d="M34.3,83.8c0.2,0,0.6,0,0.7-0.1c6.7-5.9,14.2-5.3,21.9-2.3c0.3,0.1,0.7,0.2,1.1,0.2
			c8.6,5.4,17.5,10.3,26.6,14.7c0,0.6-0.1,1.3,0.8,1.3c0.8,0,0.8-0.7,0.9-1.3h0.2c3.4,3.6-2.2,3.3-2.3,5.5c0.8,1.1,3.2-0.4,3.4,1.9
			c0.1,0.9,0,1.7-1,2.1c-5.3,1.7-7.1,7.5-12.6,10c5.7,0.9,8.7-4.1,13.4-3.8c0.2,1,0.3,2.1,0.5,3.2c1.4,0.1,2.5-2,3.7-0.6
			c1.2,1.4-0.6,2.3-1,3.5c-0.5,2-2,3.3-3.4,4.7c-0.8,0.8-1.3,1.7-0.5,2.5c0.9,0.8,1.8,0.3,2.5-0.6c1.2-1.3,2.9-2.3,2.9-4.4
			c0-1.5,0.9-1.9,2.2-1.5c-1.3,7.2-5.2,13.2-9,19.3c-0.5,0.8-1.4,1.4-1.3,2.5c-3.5,4.7-7.4,9-12.4,12.2c-4.7,3-9.8,2.5-14.9,2.5
			c-7.4-0.1-8.8-1.1-11.1-8.5c-1.8-5.5-5.9-9-10.4-12.2c-2.7-1.9-4.6-4.8-3.4-7.8c1.8-4.6,0.3-8.2-1.6-12
			c-5.4-11.2-3.8-21.5,4.4-30.8V83.8z M72.6,116.3c-0.2-0.2-0.6-0.6-0.7-0.6c-2,1-4.6,0.9-6.2,2.9c-0.3,0.4-0.3,0.7,0,0.9
			c0.8,0.5,1.8,0.5,2.4-0.1C69.4,118.1,71.9,118.6,72.6,116.3z"/>
		<path class="st6" d="M94.1,118.7c-1.4-0.4-2.2,0-2.2,1.5c0,2.1-1.7,3.1-2.9,4.4c-0.7,0.9-1.6,1.4-2.5,0.6
			c-0.8-0.8-0.3-1.7,0.5-2.5c1.4-1.3,2.9-2.7,3.4-4.7c0.3-1.2,2.2-2.1,1-3.5c-1.2-1.4-2.3,0.7-3.7,0.6c-0.2-1.1-0.3-2.1-0.5-3.2
			c-4.7-0.3-7.7,4.7-13.4,3.8c5.5-2.5,7.3-8.3,12.6-10c1-0.3,1.1-1.2,1-2.1c-0.2-2.2-2.6-0.7-3.4-1.9c0.1-2.2,5.7-1.9,2.3-5.5
			c2.1-1,3.1-2.3,1.8-4.8c-1.8-3.5-0.2-7.2-0.5-11.7c2.2,2.5,1.7,5.1,3.7,6.9c1.9-3.3-0.7-5.9-1.1-8.8c0.4-0.6,1-0.7,1.6-0.6
			c-0.2,2.6,1.2,4.7,2,7c0.3,1,1.4,2.1,2.9,1.7c1.6-0.4,1-1.7,1.1-2.7c0.7-4.1-2.2-7.8-1.3-11.9c0.2-0.8-0.4-1.7,1.1-2.9
			c-0.7,4.1,1.6,7.1,1.5,10.6c0,2.3,1.7,3.9,1.9,6.2c0.1,1.1,1.6,1,2.6,0c1.6-1.4,1.5-3.2,1.5-5.1c0-1.1,0-2.2,0.1-3.3
			c0.1-1,0.8-1.6,1.8-1.3c0.9,0.3,0.7,1.1,0.4,1.8c-1.7,3.1-0.8,5.9,1.4,8.9c1-2.1,2-3.9,3-6c1,1.3,0.4,2.4,0,3.4
			c-0.2,0.7-1.4,1.5,0.1,2.1c0.9,0.3,1.8,0.9,2.6-0.3c0.7-1.1,1.8-2.1,2.3-3.3c2.1-5.1,6-9,8.6-13.8c0.2-0.5,0.8-0.7,1.4-1.1
			c1.4,2.5-0.1,4-1.5,5.3c-2.5,2.2-4.4,4.9-4.8,8c-0.2,2,0.6,4.1-0.6,6.1c-0.2,0.3-0.4,0.6-0.6,0.9c-0.8,0.8-1.1,1.8-0.4,2.6
			c0.7,0.8,1.7,1.4,2.9,0.6c1.8-1.1,3.5-0.4,5.9,0.2c-2.3,1.2-4.1,2.1-6.4,3.3c4.6,1.8,7.1-2.5,10.7-2.4c0,0.5,0,1,0,1.5
			c-2.2,1-4.3,2.1-6.5,3c-1.4,0.6-3,1.3-2.7,3c0.3,2,2.4,1.1,3.7,1.4c1.5,0.3,2.8-0.7,4.2-1.1c1.7-0.5,3.5-0.8,5.4,0.4
			c-4,0.6-7.8,1.9-11.4,3.6c-0.6,0.3-1.5,0.3-1.6,1.3c-0.1,1,0.6,1.4,1.4,1.8c1.9,1,3.7,1.6,5.9,1.4c1.4-0.1,2.8-0.4,4.7,0.9
			c-2.9,1-5.3,0.2-7.7,0.4c-2,0.2-3.8,0.5-3.9,3.1c-0.2,1.2,0.7,1.3,1.5,1.5c-1.5,2.4-0.9,4,3.4,5.5c4.8,1.6,8.4,5.2,13.2,6.7
			c0.6,0.2,2.4,1,1.4,2.4c-0.9,1.2-2.2,0.5-3-0.2c-1.5-1.4-3.3-2.5-5.1-3.5c-1.5-0.8-3.1-2.1-4.5-2c-4.2,0.4-7.9-0.1-11.4-2.7
			c-0.6-0.4-1.4-0.4-1.9,0.4c-0.7,1.1-0.7,2,0.2,2.9c-0.8,1.2-2.1,0.6-3.1,1c-2.5-0.5-1.1,1.4-1.5,2.5c-1.3-0.9-2.5-1.7-3.7-2.5
			c-0.6,1.5-1.2,2.8-1.8,4.1c-0.4,0.7-0.7,1.8-1.8,1.4c-1.3-0.5-0.2-1.4-0.2-2.2c0-0.6,0-1.2,0-2.2c-3.5,2.3-2.3,6.4-4.2,8.9
			c-0.5-0.5-0.9-1-1.4-1.5c1.3-2.8,2.6-5.6,2.9-8.7c0.1-1,0.5-2.3-1-2.9c-1.4-0.5-1.7,0.9-2.4,1.6c-2.1,1.9-2.6,4.6-3.8,6.9
			c-0.6,1.2-1.3,2.2-3.1,3c1.4-4,2.8-7.6,4-11.3C96.3,120.2,97.5,117.9,94.1,118.7L94.1,118.7z M109.9,106.1c0.7-1-0.1-1.9-0.2-2.8
			c-0.4-4.4-5.2-7.5-9.3-6c-0.9,0.3-1.3,1.2-1,2.1c0.3,1,0.1,1.7-0.4,2.7c-1.1,2.5-0.8,4.8,1.7,6.7c2.6,2,5,1.2,7.8,0.3
			C110.6,108.4,110.2,107.4,109.9,106.1L109.9,106.1z"/>
		<path class="st4" d="M124.8,114c-0.8-0.2-1.7-0.3-1.5-1.5c6.8,1.3,13.6,2.9,19.9,6.2C136.9,117.3,130.7,116.4,124.8,114z"/>
		<path class="st4" d="M114.1,124.5c1-0.3,2.4,0.2,3.1-1c2.6,0.9,4.3,2.7,5.9,4.9C119.8,127.8,117.5,124.9,114.1,124.5L114.1,124.5z
			"/>
		<path class="st4" d="M91.8,77.2c-0.7-0.1-1.2,0-1.6,0.6c-0.6-2.6-2.7-4.7-1.7-7.8C89.5,72.4,90.7,74.8,91.8,77.2z"/>
		<path class="st4" d="M131.8,93.3c0-0.5,0-1,0-1.5c2.1-1.4,4.3-2.2,6.9-2.4C136.9,91.8,134,91.8,131.8,93.3L131.8,93.3z"/>
		<path class="st4" d="M99.4,133c0.5,0.5,0.9,1,1.4,1.5c0.3,2.6-1.4,4.5-2.2,6.9C96.6,138.4,100.4,135.9,99.4,133z"/>
		<path class="st6" d="M86.1,96.3c-0.1,0.6-0.1,1.3-0.9,1.3c-0.9,0-0.8-0.7-0.8-1.3C85,96.3,85.6,96.3,86.1,96.3L86.1,96.3z"/>
		<path class="st5" d="M158.6,45.7c0.1-0.2,0.1-0.5,0.3-0.6c0.2-0.1,0.4,0.2,0.6,0.2c-0.1,0.2-0.1,0.5-0.3,0.6
			C159.1,46,158.8,45.8,158.6,45.7z"/>
		<path class="st6" d="M72.6,116.3c-0.7,2.3-3.2,1.7-4.4,3.1c-0.6,0.6-1.6,0.6-2.4,0.1c-0.3-0.2-0.3-0.6,0-0.9
			c1.6-1.9,4.1-1.9,6.2-2.9C72,115.7,72.4,116.1,72.6,116.3z"/>
		<path class="st2" d="M109.9,106.1c0.3,1.3,0.6,2.3-1.4,3c-2.8,0.9-5.2,1.7-7.8-0.3c-2.5-1.8-2.8-4.2-1.7-6.7
			c0.4-1,0.7-1.7,0.4-2.7c-0.3-0.9,0.1-1.8,1-2.1c4.1-1.5,8.9,1.7,9.3,6C109.8,104.2,110.7,105.1,109.9,106.1L109.9,106.1z"/>
	</g>
</g>
<path class="st1" d="M284.1,112.6c-0.5,2.9-0.7,5.1-0.7,6.6c0,7.8,1.2,13.6,3.6,17.5c-4.8,3.6-9.9,5.4-15.1,5.4
	c-5.2,0-9-1.5-11.2-4.5c-2.3-3.1-3.4-7.6-3.4-13.5c0-6,2.5-23.1,7.6-51.1l-6.4-12.9c9.1-5.9,17.4-8.8,24.9-8.8
	c2.1,0,4.4,0.4,6.9,1.2c2.5,0.7,4.3,1.6,5.3,2.5c6-2.3,11.5-3.5,16.5-3.5c7.6,0,13.5,2.7,17.9,8c4.4,5.2,6.6,11.6,6.6,19.1
	c0,9-3.3,17.1-9.8,24.2c-3.1,3.5-7.4,6.2-12.7,8.3c-5.3,2.1-10.7,3.1-16.3,3.1C292.4,114.3,287.9,113.7,284.1,112.6z M286.4,98.8
	c1.1,0.2,2.3,0.4,3.5,0.4c5.2,0,9.7-1.8,13.8-5.4c4-3.6,6-8.1,6-13.4c0-3.7-1.1-6.8-3.3-9.4c-2.1-2.6-5.1-3.9-8.9-3.9
	c-1.6,0-3.5,0.3-5.6,1C290.4,79,288.5,89.3,286.4,98.8z M401.6,75.7c4.5,0,8.4,1.8,11.6,5.4c3.3,3.6,5,8.9,5,15.8
	c0,6.8-1.2,13.2-3.6,19.1c-2.4,5.8-5.6,10.5-9.5,14.3c-3.9,3.7-8.4,6.6-13.4,8.7c-5,2-10.1,3-15.3,3c-10.5,0-18.9-2.9-25-8.7
	c-6.1-5.8-9.2-13.5-9.2-23.1c0-13,4.1-23.5,12.4-31.5c8.4-8.1,19-12.2,31.9-12.2c2.9,0,5.8,0.3,8.7,1c0.9,2.7,1.4,5.7,1.4,9.1
	C398.3,76,399.9,75.7,401.6,75.7z M386.8,92.5c0-2.3,0.5-4.8,1.6-7.6c1.1-2.8,2.9-5.1,5.3-6.8c-10.6,2.3-18,6.6-22,12.9
	c-3.5,5.5-5.2,11.1-5.2,16.9s1.2,10.5,3.5,14c2.4,3.5,5.5,5.2,9.2,5.2c8.2,0,14-5.4,17.4-16.1C390,107.1,386.8,100.9,386.8,92.5z
	 M443,163.1c-5,0-8.5-1.2-10.5-3.7c-1.9-2.4-2.9-6-2.9-10.6c0-4.6,1-13.9,2.9-27.9c2-14,3.9-26,5.8-35.9l-6.8-9.7
	c5-2.9,9.3-5.1,12.9-6.5c3.6-1.5,7.2-2.3,10.7-2.3c5.8,0,8.7,3.8,8.7,11.5c0,1-0.2,3.2-0.5,6.4l1.2,0.6c2.3-5.8,5.7-10.3,10.1-13.5
	c4.4-3.3,9.6-5,15.6-5c6,0,10.8,2.7,14.4,8.2c3.5,5.4,5.3,12.1,5.3,20.2c0,10.8-3.8,20.6-11.4,29.5c-3.7,4.3-8.7,7.9-14.9,10.6
	c-6.2,2.7-13.1,4-20.8,4c-2.3,0-5.4-0.2-9.2-0.6c-0.2,2.8-0.4,5.4-0.4,7.9c0,5.2,1.2,8.8,3.7,11C452.8,161.1,448,163.1,443,163.1z
	 M458.9,113.1l-2.8,14c9.7-0.2,17.5-3.4,23.3-9.5c5.9-6.2,8.8-13,8.8-20.3c0-3.8-0.8-6.8-2.3-9.1c-1.4-2.3-3.6-3.5-6.4-3.5
	C469.5,84.7,462.7,94.1,458.9,113.1z M535.5,163.1c-5,0-8.5-1.2-10.5-3.7c-1.9-2.4-2.9-6-2.9-10.6c0-4.6,1-13.9,2.9-27.9
	c2-14,3.9-26,5.8-35.9l-6.8-9.7c5-2.9,9.3-5.1,12.9-6.5c3.6-1.5,7.2-2.3,10.7-2.3c5.8,0,8.7,3.8,8.7,11.5c0,1-0.2,3.2-0.5,6.4
	l1.2,0.6c2.3-5.8,5.7-10.3,10.1-13.5c4.4-3.3,9.6-5,15.6-5c6,0,10.8,2.7,14.4,8.2c3.5,5.4,5.3,12.1,5.3,20.2
	c0,10.8-3.8,20.6-11.4,29.5c-3.7,4.3-8.7,7.9-14.9,10.6c-6.2,2.7-13.1,4-20.8,4c-2.3,0-5.4-0.2-9.2-0.6c-0.2,2.8-0.4,5.4-0.4,7.9
	c0,5.2,1.2,8.8,3.7,11C545.3,161.1,540.5,163.1,535.5,163.1z M551.3,113.1l-2.8,14c9.7-0.2,17.5-3.4,23.3-9.5
	c5.9-6.2,8.8-13,8.8-20.3c0-3.8-0.8-6.8-2.3-9.1c-1.4-2.3-3.6-3.5-6.4-3.5C562,84.7,555.1,94.1,551.3,113.1z M653.6,47.5
	c0,3.1-1.6,5.7-4.8,8c-3.2,2.2-6.9,3.3-11,3.3c-4.1,0-7.4-0.8-9.8-2.4c-2.3-1.6-3.5-3.8-3.5-6.5c0-3.7,1.7-6.6,5.2-8.7
	c3.5-2.1,7.1-3.1,11-3.1c3.9,0,7,0.8,9.3,2.4C652.4,42,653.6,44.3,653.6,47.5z M630,142c-5,0-8.6-1.2-10.9-3.7
	c-2.3-2.5-3.4-6.3-3.4-11.4c0-5.2,2.6-18.9,7.7-41.2l-6.8-10.1c10.1-6,18-9.1,23.8-9.1c3.3,0,5.6,0.7,7,2.2c1.4,1.4,2.1,3.6,2.1,6.8
	c0,1.2-1.5,8.3-4.5,21.3s-4.5,22.2-4.5,27.8s1.2,9.4,3.7,11.6C639.9,140.1,635.1,142,630,142z M694.7,142c-11,0-19.6-2.9-25.6-8.6
	c-6-5.7-8.9-13.4-8.9-23.2c0-13,4.4-23.5,13.3-31.5c8.9-8.1,20.1-12.2,33.6-12.2c7.5,0,13.2,1.7,17,5.1c3.9,3.3,5.8,7.7,5.8,13.2
	c0,7.5-3.7,13.7-11,18.7c-7.2,4.9-18.5,7.4-33.7,7.5c0.2,5.2,1.4,9.2,3.5,12.2c2.1,2.9,4.7,4.3,7.9,4.3c3.1,0,5.8-1,8.1-3.1
	c2.3-2.1,3.5-5.5,3.5-10.3c11.8,0,17.6,2.8,17.6,8.3c0,4.8-2.9,9.2-8.7,13.4C711.3,140,703.8,142,694.7,142z M705,80.7
	c-4.1,0-7.9,2.1-11.4,6.2c-3.4,4.1-5.8,8.9-7.4,14.5c8.1-0.6,14.1-2.5,18.1-5.4c4.1-3.1,6.2-6.3,6.2-9.7c0-1.6-0.5-2.9-1.6-4
	C708,81.2,706.7,80.7,705,80.7z"/>
</svg>
